<svg xmlns="http://www.w3.org/2000/svg" width="1937.346" height="249" viewBox="0 0 1937.346 249">
  <defs>
    <style>
      .cls-1 {
        fill: #3498db;
        fill-rule: evenodd;
      }
    </style>
  </defs>
  <path id="Sanaa_copy" data-name="Sanaa copy" class="cls-1" d="M342.573,1365.22l-46.061,160.06H555.986v17.79H291.532l-20.452,70.96,0.712,0.18H627.123V1454.15h-236l4.979-17.79H627.123v-71.14H342.573Zm395.325,0-71.493,248.81,0.712,0.18h73.271L766,1525.28H951.311v88.93h71.139V1365.22H737.9Zm213.413,88.93H786.272l5.157-17.79H951.311v17.79Zm236.509-17.79,51.04,177.85h178.91V1365.22h-71.13v177.85h-54.25l-51.04-177.85H1062.09v248.99h71.13V1436.36h54.6Zm340.73-71.14-71.49,248.81,0.71,0.18h73.27l25.61-88.93h185.31v88.93h71.14V1365.22H1528.55Zm213.41,88.93H1576.92l5.16-17.79h159.88v17.79Zm181.91-88.93-71.49,248.81,0.71,0.18h73.27l25.61-88.93h185.32v88.93h71.13V1365.22H1923.87Zm213.42,88.93H1972.25l5.15-17.79h159.89v17.79Z" transform="translate(-271.094 -1365.22)"/>
</svg>
